# xmcd
#
# Track frame offsets:
# 150
# 15065
# 35351
# 45380
# 60727
# 73293
# 88478
# 101584
# 120899
# 133735
# 151025
# 166939
# 181071
# 195068
# 208039
# 223953
# 241972
# 260963
# 277497
# 290360
#
# Disc length: 4079 seconds
#
#
# Revision: 0
# Processed by: cddbd v1.5.1PL2 Copyright (c) Steve Scherf et al.
# Submitted via: FreeRIP 2.944 
#
DISCID=210fed14
DTITLE=Sérgio Reis - As 20 Mais de Sérgio Reis
DYEAR=2000
DGENRE=Country
TTITLE0=Panela Velha
TTITLE1=Pinga Ne Mim
TTITLE2=Adeus Mariana
TTITLE3=Disco Voador
TTITLE4=Cavalo Preto
TTITLE5=Menino Da Porteira
TTITLE6=Saudade Da Minha Terra
TTITLE7=Menino Da Gaita
TTITLE8=Chalana
TTITLE9=Filho Adotivo
TTITLE10=Boiadeiro Errante
TTITLE11=Coração De Papel
TTITLE12=Rio De Lágrimas
TTITLE13=João De Barro
TTITLE14=Filho Pródigo
TTITLE15=Caminheiro
TTITLE16=Mágoa De Boiadeiro
TTITLE17=Chico Mineiro
TTITLE18=Pé De Cedro
TTITLE19=Comitiva Esperança
EXTD=
EXTT0=
EXTT1=
EXTT2=
EXTT3=
EXTT4=
EXTT5=
EXTT6=
EXTT7=
EXTT8=
EXTT9=
EXTT10=
EXTT11=
EXTT12=
EXTT13=
EXTT14=
EXTT15=
EXTT16=
EXTT17=
EXTT18=
EXTT19=
PLAYORDER=
